<?xml version="1.0" encoding="utf-8"?>
<!-- Generator: Adobe Illustrator 23.0.6, SVG Export Plug-In . SVG Version: 6.00 Build 0)  -->
<svg version="1.1" id="logoipsum" xmlns="http://www.w3.org/2000/svg" xmlns:xlink="http://www.w3.org/1999/xlink" x="0px" y="0px"
	 viewBox="0 0 177.8 100" style="enable-background:new 0 0 177.8 100;" xml:space="preserve">
<style type="text/css">
	.st0{fill:#FFFFFF;}
</style>
<title>logoipsum-2</title>
<path class="st0" d="M53.7,45.7c0.4,0,0.5,0.1,0.5,0.5v7.9h4.1c0.3,0,0.5,0.1,0.5,0.5v0.7c0,0.3-0.1,0.5-0.5,0.5h-5.4
	c-0.3,0-0.5-0.1-0.5-0.5v-9.1c0-0.3,0.1-0.5,0.5-0.5L53.7,45.7z"/>
<path class="st0" d="M62.3,49.2c0-2.3,1.5-3.7,4-3.7c2.5,0,4,1.4,4,3.7v3.1c0,2.3-1.5,3.7-4,3.7s-4-1.4-4-3.7L62.3,49.2z M68.6,49.2
	c0-1.3-0.8-2-2.3-2s-2.3,0.7-2.3,2v3.1c0,1.3,0.8,2,2.3,2s2.3-0.7,2.3-2V49.2z"/>
<path class="st0" d="M82.2,50.3c0.4,0,0.5,0.1,0.5,0.5v1.9c0,0.9-0.4,1.8-1.1,2.4c-0.8,0.7-1.9,1-3,0.9c-2.6,0-4-1.4-4-3.7v-3.1
	c0-2.3,1.5-3.7,4-3.7c2,0,3.3,0.8,3.8,2.4c0.1,0.2,0,0.5-0.2,0.6c0,0-0.1,0-0.1,0l-0.8,0.3c-0.3,0.1-0.5,0-0.6-0.3
	c-0.3-0.9-1.2-1.4-2.2-1.3c-1.5,0-2.3,0.7-2.3,2v3.2c0,1.3,0.8,2,2.3,2s2.4-0.7,2.4-1.6v-0.7h-2.2c-0.4,0-0.5-0.1-0.5-0.5v-0.7
	c0-0.3,0.1-0.5,0.5-0.5H82.2z"/>
<path class="st0" d="M86.8,49.2c0-2.3,1.5-3.7,4-3.7s4,1.4,4,3.7v3.1c0,2.3-1.5,3.7-4,3.7s-4-1.4-4-3.7V49.2z M93.1,49.2
	c0-1.3-0.8-2-2.3-2s-2.3,0.7-2.3,2v3.1c0,1.3,0.8,2,2.3,2s2.3-0.7,2.3-2V49.2z"/>
<path class="st0" d="M99.5,46c0-0.2,0.1-0.3,0.3-0.3h0.5c0.2,0,0.3,0.1,0.3,0.3v9.5c0,0.2,0,0.3-0.3,0.3h-0.5
	c-0.2,0-0.3-0.1-0.3-0.3V46z"/>
<path class="st0" d="M109.7,45.7c1.7,0,3.1,1.4,3.1,3.1c0,1.7-1.4,3.1-3.1,3.1c0,0,0,0,0,0h-3v3.5c0,0.2-0.1,0.3-0.3,0.3h-0.5
	c-0.2,0-0.3-0.1-0.3-0.3V46c0-0.2,0.1-0.3,0.3-0.3H109.7z M109.6,51c1.2,0,2.2-1,2.2-2.2s-1-2.2-2.2-2.2h-3V51H109.6z"/>
<path class="st0" d="M120.6,45.5c1.6-0.2,3.1,0.7,3.7,2.2c0.1,0.2,0,0.3-0.2,0.4l-0.4,0.2c-0.2,0.1-0.2,0.1-0.4-0.1
	c-0.5-1.1-1.6-1.8-2.8-1.6c-1.7,0-2.6,0.7-2.6,1.9c0,0.8,0.5,1.4,1.3,1.5c0.5,0.2,1.1,0.3,1.7,0.3c0.7,0,1.4,0.2,2,0.4
	c1,0.3,1.7,1.3,1.6,2.4c0,1.9-1.4,3-3.9,3c-1.7,0.2-3.3-0.8-3.8-2.4c-0.1-0.1,0-0.3,0.1-0.4c0,0,0,0,0,0l0.4-0.2
	c0.1-0.1,0.3,0,0.4,0.1c0,0,0,0,0,0c0.5,1.2,1.6,1.9,2.9,1.8c1.9,0,2.8-0.7,2.8-2c0-0.7-0.5-1.4-1.2-1.5c-0.5-0.2-1.1-0.2-1.6-0.3
	l-1.1-0.1c-0.3-0.1-0.7-0.2-1-0.3c-0.3-0.1-0.6-0.3-0.9-0.5c-0.5-0.5-0.8-1.2-0.8-1.9C117,46.6,118.3,45.5,120.6,45.5z"/>
<path class="st0" d="M129.9,52.3c0.1,1.5,1.4,2.7,2.9,2.6c1.4-0.1,2.5-1.2,2.6-2.6V46c0-0.2,0.1-0.3,0.3-0.3h0.5
	c0.2,0,0.3,0.1,0.3,0.3v6.3c0,2.3-1.3,3.6-3.8,3.6s-3.8-1.4-3.8-3.6V46c0-0.2,0.1-0.3,0.3-0.3h0.5c0.2,0,0.3,0.1,0.3,0.3V52.3z"/>
<path class="st0" d="M150.3,45.7c0.2,0,0.3,0.1,0.3,0.3v9.5c0,0.2-0.1,0.3-0.3,0.3h-0.4c-0.2,0-0.3-0.1-0.3-0.3v-5.8
	c0-0.8,0.1-1.7,0.2-2.5h-0.1c-0.3,0.8-0.7,1.5-1.1,2.2l-2.1,3.8c-0.1,0.1-0.2,0.2-0.3,0.2h-0.3c-0.1,0-0.3-0.1-0.3-0.2l-2.2-3.8
	c-0.4-0.7-0.7-1.4-1-2.2h-0.1c0.1,0.8,0.2,1.7,0.2,2.5v5.8c0,0.2-0.1,0.3-0.3,0.3h-0.4c-0.2,0-0.3-0.1-0.3-0.3V46
	c0-0.2,0.1-0.3,0.3-0.3h0.4c0.2,0,0.3,0.1,0.4,0.2l3.5,6.2l3.5-6.2c0.1-0.2,0.2-0.2,0.4-0.2L150.3,45.7z"/>
<path class="st0" d="M35.9,53.5v7.2c0,0.6-0.5,1-1,1c-0.6,0-1-0.5-1-1v-7.2c0.3,0.2,0.6,0.3,1,0.3C35.2,53.9,35.6,53.8,35.9,53.5z
	 M44.8,51.5c-0.6,0-1,0.4-1,1v1.3c0,0.6,0.5,1,1,1c0.6,0,1-0.5,1-1v-1.2c0-0.6-0.4-1-0.9-1.1C44.9,51.5,44.9,51.5,44.8,51.5z
	 M31.6,56.3c-0.4,0-0.7-0.1-1-0.3v7.2c0,0.6,0.5,1,1.1,1c0.6,0,1-0.5,1-1l0,0V56C32.4,56.2,32,56.3,31.6,56.3z M41.6,49.3
	c-0.6,0-1,0.4-1,0.9c0,0,0,0,0,0.1v5.6c0,0.6,0.5,1.1,1,1.1s1.1-0.5,1.1-1c0,0,0,0,0,0v-5.5c0-0.6-0.4-1-0.9-1.1
	C41.6,49.3,41.6,49.3,41.6,49.3L41.6,49.3z M38.3,51.4c-0.4,0-0.7-0.1-1-0.3v7.3c0,0.6,0.5,1.1,1,1.1s1.1-0.5,1.1-1c0,0,0,0,0,0
	v-7.3C39,51.3,38.6,51.5,38.3,51.4L38.3,51.4z M29.3,57V36.7c0-0.5-0.4-0.9-0.9-0.9h-0.2c-0.5,0-0.9,0.4-0.9,0.9V57
	c0,0.5,0.4,0.9,0.9,0.9h0.2C28.9,57.9,29.3,57.5,29.3,57z M31.7,55.5h-0.2c-0.5,0-0.9-0.4-0.9-0.9V39.1c0-0.5,0.4-0.9,0.9-0.9h0.2
	c0.5,0,0.9,0.4,0.9,0.9v15.5C32.6,55.1,32.2,55.5,31.7,55.5L31.7,55.5z M35,53.1h-0.2c-0.5,0-0.9-0.4-0.9-0.9l0,0V41.5
	c0-0.5,0.4-0.9,0.9-0.9c0,0,0,0,0,0H35c0.5,0,0.9,0.4,0.9,0.9v10.7C35.9,52.7,35.5,53.1,35,53.1L35,53.1z M38.3,50.7h-0.2
	c-0.5,0-0.9-0.4-0.9-0.9V44c0-0.5,0.4-1,0.9-1c0,0,0,0,0.1,0h0.2c0.5,0,0.9,0.4,0.9,0.9v5.8C39.3,50.3,38.8,50.7,38.3,50.7
	C38.3,50.7,38.3,50.7,38.3,50.7L38.3,50.7z M41.6,48.5h-0.2c-0.5,0-0.9-0.4-0.9-0.9v-1.5c0-0.5,0.4-0.9,0.9-0.9h0.2
	c0.5,0,0.9,0.4,0.9,0.9v1.5C42.6,48.1,42.2,48.5,41.6,48.5L41.6,48.5z"/>
</svg>
