<?xml version="1.0" encoding="utf-8"?>
<!-- Generator: Adobe Illustrator 23.0.4, SVG Export Plug-In . SVG Version: 6.00 Build 0)  -->
<svg version="1.1" id="logoipsum" xmlns="http://www.w3.org/2000/svg" xmlns:xlink="http://www.w3.org/1999/xlink" x="0px" y="0px"
	 viewBox="0 0 125.5 30.5" style="enable-background:new 0 0 125.5 30.5;" xml:space="preserve">
<style type="text/css">
	.st0{fill:#FFFFFF;}
</style>
<title>logoipsum-2</title>
<path class="st0" d="M27.6,11.1c0.4,0,0.5,0.1,0.5,0.5v7.9h4.1c0.3,0,0.5,0.1,0.5,0.5v0.7c0,0.3-0.1,0.5-0.5,0.5h-5.4
	c-0.3,0-0.5-0.1-0.5-0.5v-9.1c0-0.3,0.1-0.5,0.5-0.5L27.6,11.1z"/>
<path class="st0" d="M36.2,14.6c0-2.3,1.5-3.7,4-3.7c2.5,0,4,1.4,4,3.7v3.1c0,2.3-1.5,3.7-4,3.7s-4-1.4-4-3.7L36.2,14.6z M42.5,14.6
	c0-1.3-0.8-2-2.3-2s-2.3,0.7-2.3,2v3.1c0,1.3,0.8,2,2.3,2s2.3-0.7,2.3-2V14.6z"/>
<path class="st0" d="M56.1,15.7c0.4,0,0.5,0.1,0.5,0.5v1.9c0,0.9-0.4,1.8-1.1,2.4c-0.8,0.7-1.9,1-3,0.9c-2.6,0-4-1.4-4-3.7v-3.1
	c0-2.3,1.5-3.7,4-3.7c2,0,3.3,0.8,3.8,2.4c0.1,0.2,0,0.5-0.2,0.6H56l-0.8,0.3c-0.3,0.1-0.5,0-0.6-0.3c-0.3-0.9-1.2-1.4-2.2-1.3
	c-1.5,0-2.3,0.7-2.3,2v3.2c0,1.3,0.8,2,2.3,2s2.4-0.7,2.4-1.6v-0.7h-2.2c-0.4,0-0.5-0.1-0.5-0.5v-0.7c0-0.3,0.1-0.5,0.5-0.5h3.5
	V15.7z"/>
<path class="st0" d="M60.7,14.6c0-2.3,1.5-3.7,4-3.7c2.5,0,4,1.4,4,3.7v3.1c0,2.3-1.5,3.7-4,3.7c-2.5,0-4-1.4-4-3.7V14.6z M67,14.6
	c0-1.3-0.8-2-2.3-2c-1.5,0-2.3,0.7-2.3,2v3.1c0,1.3,0.8,2,2.3,2c1.5,0,2.3-0.7,2.3-2V14.6z"/>
<path class="st0" d="M73.4,11.4c0-0.2,0.1-0.3,0.3-0.3h0.5c0.2,0,0.3,0.1,0.3,0.3v9.5c0,0.2,0,0.3-0.3,0.3h-0.5
	c-0.2,0-0.3-0.1-0.3-0.3V11.4z"/>
<path class="st0" d="M83.6,11.1c1.7,0,3.1,1.4,3.1,3.1c0,1.7-1.4,3.1-3.1,3.1l0,0h-3v3.5c0,0.2-0.1,0.3-0.3,0.3h-0.5
	c-0.2,0-0.3-0.1-0.3-0.3v-9.4c0-0.2,0.1-0.3,0.3-0.3H83.6z M83.5,16.4c1.2,0,2.2-1,2.2-2.2s-1-2.2-2.2-2.2h-3v4.4H83.5z"/>
<path class="st0" d="M94.5,10.9c1.6-0.2,3.1,0.7,3.7,2.2c0.1,0.2,0,0.3-0.2,0.4l-0.4,0.2c-0.2,0.1-0.2,0.1-0.4-0.1
	c-0.5-1.1-1.6-1.8-2.8-1.6c-1.7,0-2.6,0.7-2.6,1.9c0,0.8,0.5,1.4,1.3,1.5c0.5,0.2,1.1,0.3,1.7,0.3c0.7,0,1.4,0.2,2,0.4
	c1,0.3,1.7,1.3,1.6,2.4c0,1.9-1.4,3-3.9,3c-1.7,0.2-3.3-0.8-3.8-2.4c-0.1-0.1,0-0.3,0.1-0.4l0,0l0.4-0.2c0.1-0.1,0.3,0,0.4,0.1l0,0
	c0.5,1.2,1.6,1.9,2.9,1.8c1.9,0,2.8-0.7,2.8-2c0-0.7-0.5-1.4-1.2-1.5c-0.5-0.2-1.1-0.2-1.6-0.3l-1.1-0.1c-0.3-0.1-0.7-0.2-1-0.3
	s-0.6-0.3-0.9-0.5c-0.5-0.5-0.8-1.2-0.8-1.9C90.9,12,92.2,10.9,94.5,10.9z"/>
<path class="st0" d="M103.8,17.7c0.1,1.5,1.4,2.7,2.9,2.6c1.4-0.1,2.5-1.2,2.6-2.6v-6.3c0-0.2,0.1-0.3,0.3-0.3h0.5
	c0.2,0,0.3,0.1,0.3,0.3v6.3c0,2.3-1.3,3.6-3.8,3.6s-3.8-1.4-3.8-3.6v-6.3c0-0.2,0.1-0.3,0.3-0.3h0.5c0.2,0,0.3,0.1,0.3,0.3v6.3
	H103.8z"/>
<path class="st0" d="M124.2,11.1c0.2,0,0.3,0.1,0.3,0.3v9.5c0,0.2-0.1,0.3-0.3,0.3h-0.4c-0.2,0-0.3-0.1-0.3-0.3v-5.8
	c0-0.8,0.1-1.7,0.2-2.5h-0.1c-0.3,0.8-0.7,1.5-1.1,2.2l-2.1,3.8c-0.1,0.1-0.2,0.2-0.3,0.2h-0.3c-0.1,0-0.3-0.1-0.3-0.2l-2.2-3.8
	c-0.4-0.7-0.7-1.4-1-2.2h-0.1c0.1,0.8,0.2,1.7,0.2,2.5v5.8c0,0.2-0.1,0.3-0.3,0.3h-0.4c-0.2,0-0.3-0.1-0.3-0.3v-9.5
	c0-0.2,0.1-0.3,0.3-0.3h0.4c0.2,0,0.3,0.1,0.4,0.2l3.5,6.2l3.5-6.2c0.1-0.2,0.2-0.2,0.4-0.2H124.2z"/>
<path class="st0" d="M9.8,18.9v7.2c0,0.6-0.5,1-1,1c-0.6,0-1-0.5-1-1v-7.2c0.3,0.2,0.6,0.3,1,0.3C9.1,19.3,9.5,19.2,9.8,18.9z
	 M18.7,16.9c-0.6,0-1,0.4-1,1v1.3c0,0.6,0.5,1,1,1c0.6,0,1-0.5,1-1V18C19.7,17.4,19.3,17,18.7,16.9C18.8,16.9,18.8,16.9,18.7,16.9z
	 M5.5,21.7c-0.4,0-0.7-0.1-1-0.3v7.2c0,0.6,0.5,1,1.1,1c0.6,0,1-0.5,1-1l0,0v-7.2C6.3,21.6,5.9,21.7,5.5,21.7z M15.5,14.7
	c-0.6,0-1,0.4-1,0.9c0,0,0,0,0,0.1v5.6c0,0.6,0.5,1.1,1,1.1s1.1-0.5,1.1-1l0,0v-5.5c0-0.6-0.4-1-0.9-1.1
	C15.5,14.7,15.5,14.7,15.5,14.7L15.5,14.7z M12.2,16.8c-0.4,0-0.7-0.1-1-0.3v7.3c0,0.6,0.5,1.1,1,1.1s1.1-0.5,1.1-1l0,0v-7.3
	C12.9,16.7,12.5,16.9,12.2,16.8L12.2,16.8z M3.2,22.4V2.1c0-0.5-0.4-0.9-0.9-0.9H2.1c-0.5,0-0.9,0.4-0.9,0.9v20.3
	c0,0.5,0.4,0.9,0.9,0.9h0.2C2.8,23.3,3.2,22.9,3.2,22.4z M5.6,20.9H5.4c-0.5,0-0.9-0.4-0.9-0.9V4.5c0-0.5,0.4-0.9,0.9-0.9h0.2
	c0.5,0,0.9,0.4,0.9,0.9V20C6.5,20.5,6.1,20.9,5.6,20.9L5.6,20.9z M8.9,18.5H8.7c-0.5,0-0.9-0.4-0.9-0.9l0,0V6.9C7.8,6.4,8.2,6,8.7,6
	l0,0h0.2c0.5,0,0.9,0.4,0.9,0.9v10.7C9.8,18.1,9.4,18.5,8.9,18.5L8.9,18.5z M12.2,16.1H12c-0.5,0-0.9-0.4-0.9-0.9V9.4
	c0-0.5,0.4-1,0.9-1c0,0,0,0,0.1,0h0.2c0.5,0,0.9,0.4,0.9,0.9v5.8C13.2,15.7,12.7,16.1,12.2,16.1L12.2,16.1L12.2,16.1z M15.5,13.9
	h-0.2c-0.5,0-0.9-0.4-0.9-0.9v-1.5c0-0.5,0.4-0.9,0.9-0.9h0.2c0.5,0,0.9,0.4,0.9,0.9V13C16.5,13.5,16.1,13.9,15.5,13.9L15.5,13.9z"
	/>
</svg>
