<?xml version="1.0" encoding="utf-8"?>
<!-- Generator: Adobe Illustrator 23.0.4, SVG Export Plug-In . SVG Version: 6.00 Build 0)  -->
<svg version="1.1" id="logoipsum" xmlns="http://www.w3.org/2000/svg" xmlns:xlink="http://www.w3.org/1999/xlink" x="0px" y="0px"
	 viewBox="0 0 124.9 30.3" style="enable-background:new 0 0 124.9 30.3;" xml:space="preserve">
<style type="text/css">
	.st0{fill:#394149;}
</style>
<title>logoipsum-2</title>
<path class="st0" d="M27.1,11.1c0.4,0,0.5,0.1,0.5,0.5v7.9h4.1c0.3,0,0.5,0.1,0.5,0.5v0.7c0,0.3-0.1,0.5-0.5,0.5h-5.4
	c-0.3,0-0.5-0.1-0.5-0.5v-9.1c0-0.3,0.1-0.5,0.5-0.5L27.1,11.1z"/>
<path class="st0" d="M35.7,14.6c0-2.3,1.5-3.7,4-3.7c2.5,0,4,1.4,4,3.7v3.1c0,2.3-1.5,3.7-4,3.7s-4-1.4-4-3.7L35.7,14.6z M42,14.6
	c0-1.3-0.8-2-2.3-2s-2.3,0.7-2.3,2v3.1c0,1.3,0.8,2,2.3,2s2.3-0.7,2.3-2V14.6z"/>
<path class="st0" d="M55.6,15.7c0.4,0,0.5,0.1,0.5,0.5v1.9c0,0.9-0.4,1.8-1.1,2.4c-0.8,0.7-1.9,1-3,0.9c-2.6,0-4-1.4-4-3.7v-3.1
	c0-2.3,1.5-3.7,4-3.7c2,0,3.3,0.8,3.8,2.4c0.1,0.2,0,0.5-0.2,0.6c0,0-0.1,0-0.1,0l-0.8,0.3c-0.3,0.1-0.5,0-0.6-0.3
	c-0.3-0.9-1.2-1.4-2.2-1.3c-1.5,0-2.3,0.7-2.3,2v3.2c0,1.3,0.8,2,2.3,2s2.4-0.7,2.4-1.6v-0.7h-2.2c-0.4,0-0.5-0.1-0.5-0.5v-0.7
	c0-0.3,0.1-0.5,0.5-0.5H55.6z"/>
<path class="st0" d="M60.2,14.6c0-2.3,1.5-3.7,4-3.7c2.5,0,4,1.4,4,3.7v3.1c0,2.3-1.5,3.7-4,3.7c-2.5,0-4-1.4-4-3.7V14.6z
	 M66.6,14.6c0-1.3-0.8-2-2.3-2c-1.5,0-2.3,0.7-2.3,2v3.1c0,1.3,0.8,2,2.3,2c1.5,0,2.3-0.7,2.3-2V14.6z"/>
<path class="st0" d="M73,11.4c0-0.2,0.1-0.3,0.3-0.3h0.5c0.2,0,0.3,0.1,0.3,0.3v9.5c0,0.2,0,0.3-0.3,0.3h-0.5
	c-0.2,0-0.3-0.1-0.3-0.3V11.4z"/>
<path class="st0" d="M83.1,11.1c1.7,0,3.1,1.4,3.1,3.1c0,1.7-1.4,3.1-3.1,3.1c0,0,0,0,0,0h-3v3.5c0,0.2-0.1,0.3-0.3,0.3h-0.5
	c-0.2,0-0.3-0.1-0.3-0.3v-9.5c0-0.2,0.1-0.3,0.3-0.3H83.1z M83,16.4c1.2,0,2.2-1,2.2-2.2s-1-2.2-2.2-2.2h-3v4.4H83z"/>
<path class="st0" d="M94,10.9c1.6-0.2,3.1,0.7,3.7,2.2c0.1,0.2,0,0.3-0.2,0.4l-0.4,0.2c-0.2,0.1-0.2,0.1-0.4-0.1
	c-0.5-1.1-1.6-1.8-2.8-1.6c-1.7,0-2.6,0.7-2.6,1.9c0,0.8,0.5,1.4,1.3,1.5c0.5,0.2,1.1,0.3,1.7,0.3c0.7,0,1.4,0.2,2,0.4
	c1,0.3,1.7,1.3,1.6,2.4c0,1.9-1.4,3-3.9,3c-1.7,0.2-3.3-0.8-3.8-2.4c-0.1-0.1,0-0.3,0.1-0.4c0,0,0,0,0,0l0.4-0.2
	c0.1-0.1,0.3,0,0.4,0.1c0,0,0,0,0,0c0.5,1.2,1.6,1.9,2.9,1.8c1.9,0,2.8-0.7,2.8-2c0-0.7-0.5-1.4-1.2-1.5c-0.5-0.2-1.1-0.2-1.6-0.3
	L93,16.5c-0.3-0.1-0.7-0.2-1-0.3c-0.3-0.1-0.6-0.3-0.9-0.5c-0.5-0.5-0.8-1.2-0.8-1.9C90.4,12.1,91.7,10.9,94,10.9z"/>
<path class="st0" d="M103.3,17.8c0.1,1.5,1.4,2.7,2.9,2.6c1.4-0.1,2.5-1.2,2.6-2.6v-6.3c0-0.2,0.1-0.3,0.3-0.3h0.5
	c0.2,0,0.3,0.1,0.3,0.3v6.3c0,2.3-1.3,3.6-3.8,3.6s-3.8-1.4-3.8-3.6v-6.3c0-0.2,0.1-0.3,0.3-0.3h0.5c0.2,0,0.3,0.1,0.3,0.3V17.8z"/>
<path class="st0" d="M123.7,11.1c0.2,0,0.3,0.1,0.3,0.3v9.5c0,0.2-0.1,0.3-0.3,0.3h-0.4c-0.2,0-0.3-0.1-0.3-0.3v-5.8
	c0-0.8,0.1-1.7,0.2-2.5h-0.1c-0.3,0.8-0.7,1.5-1.1,2.2l-2.1,3.8c-0.1,0.1-0.2,0.2-0.3,0.2h-0.3c-0.1,0-0.3-0.1-0.3-0.2l-2.2-3.8
	c-0.4-0.7-0.7-1.4-1-2.2h-0.1c0.1,0.8,0.2,1.7,0.2,2.5v5.8c0,0.2-0.1,0.3-0.3,0.3h-0.4c-0.2,0-0.3-0.1-0.3-0.3v-9.5
	c0-0.2,0.1-0.3,0.3-0.3h0.4c0.2,0,0.3,0.1,0.4,0.2l3.5,6.2l3.5-6.2c0.1-0.2,0.2-0.2,0.4-0.2L123.7,11.1z"/>
<path class="st0" d="M9.4,19v7.2c0,0.6-0.5,1-1,1c-0.6,0-1-0.5-1-1V19c0.3,0.2,0.6,0.3,1,0.3C8.7,19.3,9,19.2,9.4,19z M18.3,16.9
	c-0.6,0-1,0.4-1,1v1.3c0,0.6,0.5,1,1,1c0.6,0,1-0.5,1-1v-1.2c0-0.6-0.4-1-0.9-1.1C18.4,16.9,18.3,16.9,18.3,16.9z M5,21.7
	c-0.4,0-0.7-0.1-1-0.3v7.2c0,0.6,0.5,1,1.1,1c0.6,0,1-0.5,1-1l0,0v-7.2C5.8,21.6,5.4,21.7,5,21.7z M15,14.7c-0.6,0-1,0.4-1,0.9
	c0,0,0,0,0,0.1v5.6c0,0.6,0.5,1.1,1,1.1s1.1-0.5,1.1-1c0,0,0,0,0,0v-5.5c0-0.6-0.4-1-0.9-1.1C15.1,14.7,15,14.7,15,14.7L15,14.7z
	 M11.7,16.8c-0.4,0-0.7-0.1-1-0.3v7.3c0,0.6,0.5,1.1,1,1.1s1.1-0.5,1.1-1c0,0,0,0,0,0v-7.3C12.4,16.8,12,16.9,11.7,16.8L11.7,16.8z
	 M2.7,22.4V2.1c0-0.5-0.4-0.9-0.9-0.9H1.6c-0.5,0-0.9,0.4-0.9,0.9v20.3c0,0.5,0.4,0.9,0.9,0.9h0.2C2.3,23.4,2.7,22.9,2.7,22.4z
	 M5.1,20.9H4.9c-0.5,0-0.9-0.4-0.9-0.9V4.5C4,4,4.4,3.6,4.9,3.6h0.2C5.6,3.6,6,4,6,4.5V20C6,20.5,5.6,21,5.1,20.9L5.1,20.9z
	 M8.4,18.6H8.2c-0.5,0-0.9-0.4-0.9-0.9l0,0V6.9C7.3,6.4,7.7,6,8.2,6c0,0,0,0,0,0h0.2c0.5,0,0.9,0.4,0.9,0.9v10.7
	C9.3,18.1,8.9,18.6,8.4,18.6L8.4,18.6z M11.7,16.1h-0.2c-0.5,0-0.9-0.4-0.9-0.9V9.4c0-0.5,0.4-1,0.9-1c0,0,0,0,0.1,0h0.2
	c0.5,0,0.9,0.4,0.9,0.9v5.8C12.7,15.7,12.3,16.1,11.7,16.1C11.7,16.1,11.7,16.1,11.7,16.1L11.7,16.1z M15,14h-0.2
	c-0.5,0-0.9-0.4-0.9-0.9v-1.5c0-0.5,0.4-0.9,0.9-0.9H15c0.5,0,0.9,0.4,0.9,0.9V13C16,13.5,15.6,14,15,14L15,14z"/>
</svg>
